<svg width="78" height="78" xmlns="http://www.w3.org/2000/svg" xmlns:xlink="http://www.w3.org/1999/xlink" overflow="hidden"><defs><clipPath id="clip0"><rect x="320" y="187" width="78" height="78"/></clipPath></defs><g clip-path="url(#clip0)" transform="translate(-320 -187)"><path d="M374.744 200.434C373.789 199.74 372.794 199.104 371.763 198.529L372.238 197.676C374.334 198.848 376.285 200.261 378.052 201.887L377.392 202.604C376.552 201.83 375.667 201.106 374.744 200.434ZM384.759 213.184 385.661 212.816C385.436 212.261 385.194 211.716 384.936 211.18 384.64 210.563 384.324 209.956 383.987 209.36L383.139 209.841C383.464 210.416 383.77 211.003 384.056 211.602 384.306 212.122 384.54 212.649 384.759 213.184ZM396.862 258.5C396.862 262.51 377.354 264.675 359 264.675 340.646 264.675 321.138 262.51 321.138 258.5 321.138 257.411 322.412 256.47 324.997 255.629L324.997 234.653 329.872 234.653 329.872 227.341 338.982 227.341 344.253 234.368 344.253 240.747 349.372 240.747 349.372 230.509 351.809 227.259 351.809 211.972 349.372 209.331 349.372 193.106 354.929 187.122 364.972 187.122 364.972 196.872 368.628 196.872 368.628 230.997 374.966 230.997 374.966 223.187 380.456 216.372 389.347 216.372 389.347 254.685C394.396 255.741 396.862 256.989 396.862 258.5ZM352.784 225.96 354.247 224.01 354.247 214.613 352.784 213.029ZM395.888 258.5C395.888 258.259 395.552 257.006 389.347 255.681L389.347 256.469 388.372 256.469 388.372 217.347 380.923 217.347 375.941 223.531 375.941 231.972 368.628 231.972 368.628 240.747 372.528 240.747 372.528 238.309 382.034 238.309 382.034 258.906 381.059 258.906 381.059 245.378 374.966 245.378 374.966 241.722 363.997 241.722 363.997 239.284 356.441 239.284 356.441 258.906 355.466 258.906 355.466 238.309 364.972 238.309 364.972 240.747 367.653 240.747 367.653 197.847 363.997 197.847 363.997 188.097 355.354 188.097 350.347 193.489 350.347 208.951 355.222 214.232 355.222 224.335 350.347 230.835 350.347 258.906 349.372 258.906 349.372 241.722 343.278 241.722 343.278 234.695 338.495 228.316 330.847 228.316 330.847 235.628 325.972 235.628 325.972 257.688 324.997 257.688 324.997 256.65C322.335 257.56 322.112 258.287 322.112 258.5 322.112 260.625 335.249 263.7 359 263.7 382.751 263.7 395.888 260.625 395.888 258.5ZM381.059 239.284 373.503 239.284 373.503 240.747 375.941 240.747 375.941 244.403 381.059 244.403ZM330.969 240.503 338.281 240.503 338.281 239.528 330.969 239.528ZM330.969 245.378 338.281 245.378 338.281 244.403 330.969 244.403ZM330.969 250.253 338.281 250.253 338.281 249.278 330.969 249.278ZM363.875 218.809 360.219 218.809 360.219 219.784 363.875 219.784ZM363.875 223.684 360.219 223.684 360.219 224.659 363.875 224.659ZM363.875 228.559 360.219 228.559 360.219 229.534 363.875 229.534ZM363.875 233.434 360.219 233.434 360.219 234.409 363.875 234.409ZM363.875 204.184 360.219 204.184 360.219 205.159 363.875 205.159ZM363.875 209.059 360.219 209.059 360.219 210.034 363.875 210.034ZM363.875 213.934 360.219 213.934 360.219 214.909 363.875 214.909ZM383.497 232.094 384.472 232.094 384.472 224.781 383.497 224.781ZM381.059 232.094 382.034 232.094 382.034 228.438 381.059 228.438ZM369.969 250.253 376.062 250.253 376.062 249.278 369.969 249.278ZM369.969 253.909 376.062 253.909 376.062 252.934 369.969 252.934ZM328.45 225.922C328.423 225.41 328.409 224.895 328.409 224.375 328.409 222.508 328.585 220.645 328.933 218.811 329.245 217.169 329.697 215.557 330.283 213.993 330.567 213.237 330.882 212.491 331.219 211.778L330.336 211.362C329.983 212.111 329.661 212.875 329.37 213.65 328.764 215.266 328.297 216.931 327.974 218.627 327.615 220.522 327.434 222.446 327.434 224.375 327.434 224.912 327.448 225.444 327.476 225.972ZM341.303 199.95C343.023 198.772 344.864 197.78 346.794 196.99L346.425 196.088C344.431 196.904 342.53 197.929 340.753 199.146 338.896 200.416 337.185 201.886 335.649 203.53L336.362 204.197C337.848 202.604 339.505 201.18 341.303 199.95ZM331.7 207.719C331.7 207.113 332.191 206.622 332.797 206.622 333.403 206.622 333.894 207.113 333.894 207.719 333.894 208.325 333.403 208.816 332.797 208.816 332.191 208.815 331.701 208.324 331.7 207.719ZM332.675 207.719C332.675 207.853 332.919 207.853 332.919 207.719 332.919 207.651 332.864 207.597 332.797 207.597 332.73 207.597 332.675 207.651 332.675 207.719ZM379.841 205.281C379.841 204.675 380.332 204.184 380.938 204.184 381.543 204.184 382.034 204.675 382.034 205.281 382.034 205.887 381.543 206.378 380.938 206.378 380.332 206.377 379.841 205.887 379.841 205.281ZM380.816 205.281C380.816 205.415 381.059 205.415 381.059 205.281 381.059 205.214 381.005 205.159 380.938 205.159 380.87 205.159 380.816 205.214 380.816 205.281Z" fill="#020828"/></g></svg>