<svg width="64" height="64" xmlns="http://www.w3.org/2000/svg" xmlns:xlink="http://www.w3.org/1999/xlink" overflow="hidden"><defs><clipPath id="clip0"><rect x="58" y="410" width="64" height="64"/></clipPath></defs><g clip-path="url(#clip0)" transform="translate(-58 -410)"><path d="M102.918 421.023C102.134 420.454 101.318 419.932 100.472 419.46L100.862 418.76C102.582 419.721 104.183 420.881 105.632 422.215L105.091 422.803C104.401 422.169 103.676 421.574 102.918 421.023ZM111.136 431.484 111.876 431.182C111.691 430.727 111.492 430.28 111.281 429.84 111.038 429.334 110.778 428.836 110.502 428.347L109.806 428.741C110.073 429.213 110.324 429.695 110.559 430.186 110.764 430.613 110.956 431.045 111.136 431.484ZM121.066 468.667C121.066 471.957 105.06 473.733 90 473.733 74.94 473.733 58.934 471.957 58.934 468.667 58.934 467.773 59.979 467.001 62.1 466.311L62.1 449.1 66.1 449.1 66.1 443.1 73.575 443.1 77.9 448.866 77.9 454.1 82.1 454.1 82.1 445.7 84.1 443.033 84.1 430.49 82.1 428.323 82.1 415.01 86.66 410.1 94.9 410.1 94.9 418.1 97.9 418.1 97.9 446.1 103.1 446.1 103.1 439.692 107.605 434.1 114.9 434.1 114.9 465.536C119.043 466.403 121.066 467.427 121.066 468.667ZM84.9 441.967 86.1 440.367 86.1 432.657 84.9 431.357ZM120.267 468.667C120.267 468.469 119.991 467.441 114.9 466.354L114.9 467 114.1 467 114.1 434.9 107.988 434.9 103.9 439.974 103.9 446.9 97.9 446.9 97.9 454.1 101.1 454.1 101.1 452.1 108.9 452.1 108.9 469 108.1 469 108.1 457.9 103.1 457.9 103.1 454.9 94.1 454.9 94.1 452.9 87.9 452.9 87.9 469 87.1 469 87.1 452.1 94.9 452.1 94.9 454.1 97.1 454.1 97.1 418.9 94.1 418.9 94.1 410.9 87.008 410.9 82.9 415.324 82.9 428.011 86.9 432.344 86.9 440.634 82.9 445.967 82.9 469 82.1 469 82.1 454.9 77.1 454.9 77.1 449.134 73.175 443.9 66.9 443.9 66.9 449.9 62.9 449.9 62.9 468 62.1 468 62.1 467.149C59.916 467.895 59.733 468.492 59.733 468.667 59.733 470.41 70.512 472.933 90 472.933 109.488 472.933 120.267 470.41 120.267 468.667ZM108.1 452.9 101.9 452.9 101.9 454.1 103.9 454.1 103.9 457.1 108.1 457.1ZM67 453.9 73 453.9 73 453.1 67 453.1ZM67 457.9 73 457.9 73 457.1 67 457.1ZM67 461.9 73 461.9 73 461.1 67 461.1ZM94 436.1 91 436.1 91 436.9 94 436.9ZM94 440.1 91 440.1 91 440.9 94 440.9ZM94 444.1 91 444.1 91 444.9 94 444.9ZM94 448.1 91 448.1 91 448.9 94 448.9ZM94 424.1 91 424.1 91 424.9 94 424.9ZM94 428.1 91 428.1 91 428.9 94 428.9ZM94 432.1 91 432.1 91 432.9 94 432.9ZM110.1 447 110.9 447 110.9 441 110.1 441ZM108.1 447 108.9 447 108.9 444 108.1 444ZM99 461.9 104 461.9 104 461.1 99 461.1ZM99 464.9 104 464.9 104 464.1 99 464.1ZM64.933 441.936C64.911 441.516 64.9 441.093 64.9 440.667 64.9001 439.135 65.0441 437.606 65.33 436.101 65.5858 434.754 65.9561 433.432 66.437 432.148 66.67 431.528 66.929 430.916 67.205 430.331L66.481 429.989C66.1913 430.604 65.9267 431.23 65.688 431.867 65.1911 433.193 64.8081 434.559 64.543 435.95 64.2481 437.505 64.0998 439.084 64.1 440.667 64.1 441.107 64.1113 441.544 64.134 441.977ZM75.479 420.626C76.8907 419.659 78.4012 418.845 79.985 418.197L79.682 417.457C78.0461 418.126 76.486 418.967 75.028 419.966 73.5046 421.008 72.1002 422.214 70.84 423.563L71.425 424.11C72.6446 422.804 74.0041 421.635 75.479 420.626ZM67.6 427C67.6 426.503 68.0029 426.1 68.5 426.1 68.9971 426.1 69.4 426.503 69.4 427 69.4 427.497 68.9971 427.9 68.5 427.9 68.0032 427.899 67.6005 427.497 67.6 427ZM68.4 427C68.4 427.11 68.6 427.11 68.6 427 68.6 426.945 68.5552 426.9 68.5 426.9 68.4448 426.9 68.4 426.945 68.4 427ZM107.1 425C107.1 424.503 107.503 424.1 108 424.1 108.497 424.1 108.9 424.503 108.9 425 108.9 425.497 108.497 425.9 108 425.9 107.503 425.899 107.101 425.497 107.1 425ZM107.9 425C107.9 425.11 108.1 425.11 108.1 425 108.1 424.945 108.055 424.9 108 424.9 107.945 424.9 107.9 424.945 107.9 425Z" fill="#FFFFFF"/></g></svg>